STARTFONT 2.1
COMMENT Exported by Fony v1.4.7
FONT 12X24TG
SIZE 24 96 96
FONTBOUNDINGBOX 12 23 0 -4
STARTPROPERTIES 6
COPYRIGHT "Tangar @ http://tangar.info for TomeNET @ http://tomenet.eu"
RESOLUTION_X 96
RESOLUTION_Y 96
FONT_ASCENT 20
FONT_DESCENT 4
DEFAULT_CHAR 31
ENDPROPERTIES
CHARS 256
STARTCHAR 000
ENCODING 0
SWIDTH 864 0
DWIDTH 12 0
BBX 12 24 0 -4
BITMAP
8000
4000
4000
2010
0020
0000
1040
0800
0480
0480
0000
0100
0200
0300
0000
0080
0480
0800
1040
0000
0020
2010
2000
4000
ENDCHAR
STARTCHAR 001
ENCODING 1
SWIDTH 864 0
DWIDTH 12 0
BBX 10 1 0 -2
BITMAP
9240
ENDCHAR
STARTCHAR 002
ENCODING 2
SWIDTH 864 0
DWIDTH 12 0
BBX 12 24 0 -4
BITMAP
FFF0
FFF0
FFF0
FFF0
FFF0
FFF0
FFF0
FFF0
FFF0
FFF0
FFF0
FFF0
FFF0
FFF0
FFF0
FFF0
FFF0
FFF0
FFF0
FFF0
FFF0
FFF0
FFF0
FFF0
ENDCHAR
STARTCHAR 003
ENCODING 3
SWIDTH 864 0
DWIDTH 12 0
BBX 11 1 1 -1
BITMAP
DB60
ENDCHAR
STARTCHAR 004
ENCODING 4
SWIDTH 864 0
DWIDTH 12 0
BBX 3 4 5 -3
BITMAP
40
A0
E0
40
ENDCHAR
STARTCHAR 005
ENCODING 5
SWIDTH 864 0
DWIDTH 12 0
BBX 11 3 1 -1
BITMAP
9240
0000
4920
ENDCHAR
STARTCHAR 006
ENCODING 6
SWIDTH 864 0
DWIDTH 12 0
BBX 12 6 0 -1
BITMAP
0880
1540
0880
2210
0500
9240
ENDCHAR
STARTCHAR 007
ENCODING 7
SWIDTH 864 0
DWIDTH 12 0
BBX 11 1 1 0
BITMAP
DB60
ENDCHAR
STARTCHAR 008
ENCODING 8
SWIDTH 864 0
DWIDTH 12 0
BBX 12 3 0 6
BITMAP
2220
5550
8880
ENDCHAR
STARTCHAR 009
ENCODING 9
SWIDTH 864 0
DWIDTH 12 0
BBX 7 5 2 4
BITMAP
82
C6
6C
38
10
ENDCHAR
STARTCHAR 010
ENCODING 10
SWIDTH 864 0
DWIDTH 12 0
BBX 12 22 0 -4
BITMAP
FC70
FCF0
FCF0
FC70
0000
E3F0
E7F0
E7F0
E7F0
E7F0
E3F0
0000
FC70
FCF0
FCF0
FC70
0000
0000
E3F0
E7F0
E7F0
E3F0
ENDCHAR
STARTCHAR 011
ENCODING 11
SWIDTH 864 0
DWIDTH 12 0
BBX 12 22 0 -4
BITMAP
FCF0
FCF0
FCF0
FCF0
0000
E7F0
E7F0
E7F0
E7F0
E7F0
E7F0
0000
FCF0
FCF0
FCF0
FCF0
0000
0000
E7F0
E7F0
E7F0
E7F0
ENDCHAR
STARTCHAR 012
ENCODING 12
SWIDTH 864 0
DWIDTH 12 0
BBX 12 22 0 -4
BITMAP
FCF0
FCF0
FCB0
FCF0
0000
E7F0
E7F0
A7F0
A7F0
E7F0
E7F0
0000
FCF0
FCB0
FCB0
FCF0
0000
0000
E7F0
A7F0
E7F0
E7F0
ENDCHAR
STARTCHAR 013
ENCODING 13
SWIDTH 864 0
DWIDTH 12 0
BBX 12 24 0 -4
BITMAP
FFF0
7BF0
7BF0
3030
8F80
D840
E050
7850
7850
3FD0
3FD0
C780
E7D0
F850
7FD0
3FB0
2FB0
8780
F070
FFF0
7BF0
3330
B730
CCC0
ENDCHAR
STARTCHAR 014
ENCODING 14
SWIDTH 864 0
DWIDTH 12 0
BBX 12 23 0 -4
BITMAP
0080
0180
01C0
03C0
1340
1AE0
3BE0
3FF0
3DF0
7DF0
7BC0
F340
E770
EDF0
EEA0
DEB0
9E80
1FC0
1FC0
13C0
3FE0
7FF0
FFF0
ENDCHAR
STARTCHAR 015
ENCODING 15
SWIDTH 864 0
DWIDTH 12 0
BBX 12 22 0 -4
BITMAP
0400
0E00
1F00
1D80
1D80
3F80
3F80
7E80
7C00
FB80
DBC0
C4C0
EFE0
3FE0
3FF0
1FF0
1FF0
1FF0
3FF0
7FF0
7FF0
7FF0
ENDCHAR
STARTCHAR 016
ENCODING 16
SWIDTH 864 0
DWIDTH 12 0
BBX 12 24 0 -4
BITMAP
FFF0
FFF0
C4F0
FFF0
D370
FFF0
CD30
FFF0
F430
FFF0
D070
FFF0
C1B0
FFF0
C6B0
FFF0
DA30
FFF0
E870
FFF0
E130
FFF0
FFF0
FFF0
ENDCHAR
STARTCHAR 017
ENCODING 17
SWIDTH 864 0
DWIDTH 12 0
BBX 12 24 0 -4
BITMAP
FFF0
FFF0
C4F0
C9B0
D370
E6B0
CD30
DA30
F430
E830
D070
E0F0
C1B0
C370
C6B0
CD30
DA30
F430
E870
D0B0
E130
C230
FFF0
FFF0
ENDCHAR
STARTCHAR 018
ENCODING 18
SWIDTH 864 0
DWIDTH 12 0
BBX 12 24 0 -4
BITMAP
FFF0
FFF0
C430
CC30
D430
E430
CC30
DC30
F430
EC30
D430
E430
C430
C430
C430
CC30
DC30
F430
EC30
D430
E430
C430
FFF0
FFF0
ENDCHAR
STARTCHAR 019
ENCODING 19
SWIDTH 864 0
DWIDTH 12 0
BBX 12 24 0 -4
BITMAP
FFF0
FFF0
D270
FFF0
C930
FFF0
E4B0
FFF0
FFF0
C030
FFF0
D6B0
FFF0
F6B0
FFF0
DEB0
FFF0
D7B0
FFF0
C630
FFF0
C630
FFF0
FFF0
ENDCHAR
STARTCHAR 020
ENCODING 20
SWIDTH 864 0
DWIDTH 12 0
BBX 12 24 0 -4
BITMAP
FFF0
FFF0
D270
E4B0
C930
D270
E4B0
C930
FFF0
C030
C6B0
D6B0
D6F0
F6B0
D7B0
DEB0
F6F0
D7B0
DE30
C630
CF30
C630
FFF0
FFF0
ENDCHAR
STARTCHAR 021
ENCODING 21
SWIDTH 864 0
DWIDTH 12 0
BBX 12 24 0 -4
BITMAP
FFF0
FFF0
D430
E430
CC30
D430
E430
CC30
FFF0
C030
C6B0
D6B0
D6F0
F6B0
D7B0
DEB0
F6F0
D7B0
DE30
C630
CF30
C630
FFF0
FFF0
ENDCHAR
STARTCHAR 022
ENCODING 22
SWIDTH 864 0
DWIDTH 12 0
BBX 12 24 0 -4
BITMAP
8000
4000
4000
2010
0020
0000
1040
0800
0480
0480
0000
0100
0200
0300
0000
0080
0480
0800
1040
0000
0020
2010
2000
4000
ENDCHAR
STARTCHAR 023
ENCODING 23
SWIDTH 864 0
DWIDTH 12 0
BBX 12 24 0 -4
BITMAP
8000
4000
4000
2010
0020
0000
1040
0800
0480
0480
0000
0100
0200
0300
0000
0080
0480
0800
1040
0000
0020
2010
2000
4000
ENDCHAR
STARTCHAR 024
ENCODING 24
SWIDTH 864 0
DWIDTH 12 0
BBX 12 24 0 -4
BITMAP
8000
4000
4000
2010
0020
0000
1040
0800
0480
0480
0000
0100
0200
0300
0000
0080
0480
0800
1040
0000
0020
2010
2000
4000
ENDCHAR
STARTCHAR 025
ENCODING 25
SWIDTH 864 0
DWIDTH 12 0
BBX 12 24 0 -4
BITMAP
8000
4000
4000
2010
0020
0000
1040
0800
0480
0480
0000
0100
0200
0300
0000
0080
0480
0800
1040
0000
0020
2010
2000
4000
ENDCHAR
STARTCHAR 026
ENCODING 26
SWIDTH 864 0
DWIDTH 12 0
BBX 12 24 0 -4
BITMAP
8000
4000
4000
2010
0020
0000
1040
0800
0480
0480
0000
0100
0200
0300
0000
0080
0480
0800
1040
0000
0020
2010
2000
4000
ENDCHAR
STARTCHAR 027
ENCODING 27
SWIDTH 864 0
DWIDTH 12 0
BBX 12 24 0 -4
BITMAP
8000
4000
4000
2010
0020
0000
1040
0800
0480
0480
0000
0100
0200
0300
0000
0080
0480
0800
1040
0000
0020
2010
2000
4000
ENDCHAR
STARTCHAR 028
ENCODING 28
SWIDTH 864 0
DWIDTH 12 0
BBX 12 24 0 -4
BITMAP
8000
4000
4000
2010
0020
0000
1040
0800
0480
0480
0000
0100
0200
0300
0000
0080
0480
0800
1040
0000
0020
2010
2000
4000
ENDCHAR
STARTCHAR 029
ENCODING 29
SWIDTH 864 0
DWIDTH 12 0
BBX 12 24 0 -4
BITMAP
8000
4000
4000
2010
0020
0000
1040
0800
0480
0480
0000
0100
0200
0300
0000
0080
0480
0800
1040
0000
0020
2010
2000
4000
ENDCHAR
STARTCHAR 030
ENCODING 30
SWIDTH 864 0
DWIDTH 12 0
BBX 12 24 0 -4
BITMAP
8000
4000
4000
2010
0020
0000
1040
0800
0480
0480
0000
0100
0200
0300
0000
0080
0480
0800
1040
0000
0020
2010
2000
4000
ENDCHAR
STARTCHAR 031
ENCODING 31
SWIDTH 864 0
DWIDTH 12 0
BBX 12 24 0 -4
BITMAP
8000
4000
4000
2010
0020
0000
1040
0800
0480
0480
0000
0100
0200
0300
0000
0080
0480
0800
1040
0000
0020
2010
2000
4000
ENDCHAR
STARTCHAR 032
ENCODING 32
SWIDTH 864 0
DWIDTH 12 0
BBX 0 0 0 0
BITMAP
ENDCHAR
STARTCHAR 033
ENCODING 33
SWIDTH 864 0
DWIDTH 12 0
BBX 4 18 5 -1
BITMAP
60
60
70
F0
90
90
F0
F0
F0
F0
70
70
60
00
00
60
60
60
ENDCHAR
STARTCHAR 034
ENCODING 34
SWIDTH 864 0
DWIDTH 12 0
BBX 6 5 4 10
BITMAP
CC
CC
CC
84
84
ENDCHAR
STARTCHAR 035
ENCODING 35
SWIDTH 864 0
DWIDTH 12 0
BBX 8 11 3 2
BITMAP
66
66
FF
FF
66
66
66
FF
FF
66
66
ENDCHAR
STARTCHAR 036
ENCODING 36
SWIDTH 864 0
DWIDTH 12 0
BBX 8 21 3 -3
BITMAP
04
0C
0C
3E
7F
EB
C9
C9
E8
F8
3C
1E
1B
19
19
99
FE
FE
7C
10
10
ENDCHAR
STARTCHAR 037
ENCODING 37
SWIDTH 864 0
DWIDTH 12 0
BBX 10 16 2 0
BITMAP
0100
6100
F100
9200
9200
9600
F600
0C00
0D80
09C0
0A40
1240
1240
31C0
7000
6000
ENDCHAR
STARTCHAR 038
ENCODING 38
SWIDTH 864 0
DWIDTH 12 0
BBX 9 15 3 0
BITMAP
1C00
3C00
6200
6600
6400
2C00
3800
7800
FD80
8D80
8700
8600
C300
FD80
7980
ENDCHAR
STARTCHAR 039
ENCODING 39
SWIDTH 864 0
DWIDTH 12 0
BBX 2 6 6 10
BITMAP
C0
C0
C0
C0
80
80
ENDCHAR
STARTCHAR 040
ENCODING 40
SWIDTH 864 0
DWIDTH 12 0
BBX 3 17 6 -1
BITMAP
20
60
40
C0
C0
C0
80
80
80
80
80
C0
C0
C0
40
60
20
ENDCHAR
STARTCHAR 041
ENCODING 41
SWIDTH 864 0
DWIDTH 12 0
BBX 3 17 3 -1
BITMAP
80
C0
40
60
60
60
20
20
20
20
20
60
60
60
40
C0
80
ENDCHAR
STARTCHAR 042
ENCODING 42
SWIDTH 864 0
DWIDTH 12 0
BBX 7 12 3 2
BITMAP
10
10
92
D6
74
3C
FE
FE
7C
F4
D6
92
ENDCHAR
STARTCHAR 043
ENCODING 43
SWIDTH 864 0
DWIDTH 12 0
BBX 10 13 2 1
BITMAP
0C00
0C00
0C00
0C00
0C00
FFC0
FFC0
FFC0
0C00
0C00
0C00
0C00
0C00
ENDCHAR
STARTCHAR 044
ENCODING 44
SWIDTH 864 0
DWIDTH 12 0
BBX 5 8 4 -3
BITMAP
30
78
78
78
30
60
60
C0
ENDCHAR
STARTCHAR 045
ENCODING 45
SWIDTH 864 0
DWIDTH 12 0
BBX 9 3 3 6
BITMAP
FF80
FF80
FF80
ENDCHAR
STARTCHAR 046
ENCODING 46
SWIDTH 864 0
DWIDTH 12 0
BBX 2 3 6 6
BITMAP
C0
C0
C0
ENDCHAR
STARTCHAR 047
ENCODING 47
SWIDTH 864 0
DWIDTH 12 0
BBX 7 16 3 0
BITMAP
02
06
06
04
0C
0C
18
18
38
30
30
70
60
E0
C0
C0
ENDCHAR
STARTCHAR 048
ENCODING 48
SWIDTH 864 0
DWIDTH 12 0
BBX 7 16 3 0
BITMAP
0C
1C
1E
76
62
C2
C2
C2
82
82
86
8C
8C
FC
F8
70
ENDCHAR
STARTCHAR 049
ENCODING 49
SWIDTH 864 0
DWIDTH 12 0
BBX 5 16 4 0
BITMAP
08
18
38
38
78
F8
30
30
30
30
30
30
30
30
78
F8
ENDCHAR
STARTCHAR 050
ENCODING 50
SWIDTH 864 0
DWIDTH 12 0
BBX 7 16 3 0
BITMAP
1E
3E
72
E2
C2
C2
06
06
0C
1C
18
30
60
E2
FE
FE
ENDCHAR
STARTCHAR 051
ENCODING 51
SWIDTH 864 0
DWIDTH 12 0
BBX 7 16 3 0
BITMAP
1C
1C
3E
66
46
06
04
1C
1C
0E
02
02
86
CE
FC
78
ENDCHAR
STARTCHAR 052
ENCODING 52
SWIDTH 864 0
DWIDTH 12 0
BBX 7 16 3 0
BITMAP
20
20
62
66
66
E4
E4
FC
FC
04
0C
0C
0C
0C
18
18
ENDCHAR
STARTCHAR 053
ENCODING 53
SWIDTH 864 0
DWIDTH 12 0
BBX 9 15 2 0
BITMAP
1F00
1F80
1000
3000
3000
3C00
7E00
0600
0200
0200
8200
8200
6600
7C00
1800
ENDCHAR
STARTCHAR 054
ENCODING 54
SWIDTH 864 0
DWIDTH 12 0
BBX 7 15 3 0
BITMAP
1C
3C
62
E2
C0
C0
DC
FC
E6
C2
C2
C6
E4
7C
38
ENDCHAR
STARTCHAR 055
ENCODING 55
SWIDTH 864 0
DWIDTH 12 0
BBX 8 15 3 0
BITMAP
FF
FE
86
06
04
04
0C
08
18
18
10
30
30
60
60
ENDCHAR
STARTCHAR 056
ENCODING 56
SWIDTH 864 0
DWIDTH 12 0
BBX 7 16 3 0
BITMAP
1C
1C
3E
66
66
66
6C
38
78
FC
C4
84
84
CC
F8
70
ENDCHAR
STARTCHAR 057
ENCODING 57
SWIDTH 864 0
DWIDTH 12 0
BBX 7 15 3 0
BITMAP
3C
7E
66
62
62
62
7E
3E
1E
06
0C
0C
1C
F8
E0
ENDCHAR
STARTCHAR 058
ENCODING 58
SWIDTH 864 0
DWIDTH 12 0
BBX 3 10 6 -1
BITMAP
C0
E0
E0
C0
00
00
C0
E0
E0
C0
ENDCHAR
STARTCHAR 059
ENCODING 59
SWIDTH 864 0
DWIDTH 12 0
BBX 4 13 5 -2
BITMAP
60
70
70
60
00
00
60
70
70
60
60
40
80
ENDCHAR
STARTCHAR 060
ENCODING 60
SWIDTH 864 0
DWIDTH 12 0
BBX 12 22 0 -3
BITMAP
0010
0030
0030
00B0
00B0
02B0
02B0
0AB0
2AB0
2AB0
AAB0
AAB0
AAB0
AAB0
AAB0
2AB0
0AB0
02B0
00B0
00B0
0030
0010
ENDCHAR
STARTCHAR 061
ENCODING 61
SWIDTH 864 0
DWIDTH 12 0
BBX 8 7 3 3
BITMAP
FF
FF
00
00
00
FF
FF
ENDCHAR
STARTCHAR 062
ENCODING 62
SWIDTH 864 0
DWIDTH 12 0
BBX 12 22 0 -3
BITMAP
8000
C000
D000
D000
D400
D400
D500
D540
D540
D550
D550
D550
D550
D550
D550
D540
D500
D500
D400
D000
C000
8000
ENDCHAR
STARTCHAR 063
ENCODING 63
SWIDTH 864 0
DWIDTH 12 0
BBX 7 18 2 -2
BITMAP
3C
7E
E6
E2
C2
02
02
06
0C
1C
18
10
10
00
10
38
38
10
ENDCHAR
STARTCHAR 064
ENCODING 64
SWIDTH 864 0
DWIDTH 12 0
BBX 9 22 2 -3
BITMAP
1800
3C00
3C00
3C00
1800
1C00
7E00
7E00
7F00
DD80
9D80
9D80
BF80
3E00
3E00
3600
7600
6600
6600
6600
6600
6300
ENDCHAR
STARTCHAR 065
ENCODING 65
SWIDTH 864 0
DWIDTH 12 0
BBX 12 18 0 -1
BITMAP
1C00
3E00
3F00
2780
0D80
0D80
1D80
1880
18C0
18C0
18C0
1FE0
1FE0
3060
3060
7070
7070
F8F0
ENDCHAR
STARTCHAR 066
ENCODING 66
SWIDTH 864 0
DWIDTH 12 0
BBX 9 16 1 0
BITMAP
FC00
7E00
7E00
7300
7300
7300
7200
7F00
7F00
7180
7180
7180
7100
7F00
7E00
7C00
ENDCHAR
STARTCHAR 067
ENCODING 67
SWIDTH 864 0
DWIDTH 12 0
BBX 10 16 1 0
BITMAP
3F00
7F80
7F80
71C0
61C0
E180
C100
C000
C000
C000
C000
E080
7180
7380
7F00
1E00
ENDCHAR
STARTCHAR 068
ENCODING 68
SWIDTH 864 0
DWIDTH 12 0
BBX 10 17 1 -1
BITMAP
7C00
7E00
7F00
4380
41C0
40C0
40C0
40C0
40C0
40C0
40C0
40C0
40C0
41C0
7F80
7F00
FC00
ENDCHAR
STARTCHAR 069
ENCODING 69
SWIDTH 864 0
DWIDTH 12 0
BBX 7 17 3 -1
BITMAP
FE
FE
FE
C0
C0
C0
C0
F8
F8
F8
C0
C0
C0
C0
FE
FE
FE
ENDCHAR
STARTCHAR 070
ENCODING 70
SWIDTH 864 0
DWIDTH 12 0
BBX 8 17 2 -1
BITMAP
FF
FF
FF
C0
C0
C0
C0
F0
F8
FC
C0
C0
C0
C0
C0
C0
C0
ENDCHAR
STARTCHAR 071
ENCODING 71
SWIDTH 864 0
DWIDTH 12 0
BBX 10 18 1 -1
BITMAP
0F00
1F80
3FC0
38C0
70C0
6000
6000
C000
C000
C180
C3C0
C6C0
60C0
70C0
78C0
3FC0
3F80
0F00
ENDCHAR
STARTCHAR 072
ENCODING 72
SWIDTH 864 0
DWIDTH 12 0
BBX 10 17 1 -1
BITMAP
6180
6180
6180
6180
6180
6180
6180
7F80
7F80
6180
6180
6180
6180
6180
6180
6180
F3C0
ENDCHAR
STARTCHAR 073
ENCODING 73
SWIDTH 864 0
DWIDTH 12 0
BBX 5 16 3 0
BITMAP
F8
F8
30
30
30
30
30
30
30
30
30
30
30
30
F8
F8
ENDCHAR
STARTCHAR 074
ENCODING 74
SWIDTH 864 0
DWIDTH 12 0
BBX 10 18 1 -1
BITMAP
03C0
03C0
0180
0180
0180
0180
0180
0180
0180
0180
0180
E180
4180
4180
6380
7F00
7F00
1E00
ENDCHAR
STARTCHAR 075
ENCODING 75
SWIDTH 864 0
DWIDTH 12 0
BBX 12 18 0 -1
BITMAP
0080
79E0
F9E0
33A0
2300
2200
2600
2600
3C00
3C00
3C00
2610
2630
2330
23F0
31E0
71E0
F0C0
ENDCHAR
STARTCHAR 076
ENCODING 76
SWIDTH 864 0
DWIDTH 12 0
BBX 8 16 2 0
BITMAP
E0
E0
E0
E0
E0
E0
E0
E0
E0
E0
E0
E0
E0
E1
FF
FF
ENDCHAR
STARTCHAR 077
ENCODING 77
SWIDTH 864 0
DWIDTH 12 0
BBX 10 17 1 -1
BITMAP
20C0
20C0
20C0
31C0
71C0
71C0
7BC0
6BC0
6BC0
6BC0
CEC0
CEC0
C4C0
C4C0
C0C0
C0C0
C1C0
ENDCHAR
STARTCHAR 078
ENCODING 78
SWIDTH 864 0
DWIDTH 12 0
BBX 9 17 2 -1
BITMAP
0180
8180
C180
E180
E180
B180
9180
9980
9980
8900
8F00
8700
8700
8700
8300
8300
8000
ENDCHAR
STARTCHAR 079
ENCODING 79
SWIDTH 864 0
DWIDTH 12 0
BBX 11 15 1 0
BITMAP
1E00
3F00
7F80
70C0
F0C0
E0E0
CCE0
CCE0
C0E0
C0E0
40C0
60C0
3180
3F00
0E00
ENDCHAR
STARTCHAR 080
ENCODING 80
SWIDTH 864 0
DWIDTH 12 0
BBX 9 17 2 -1
BITMAP
7E00
7F00
4180
4180
4080
4180
4180
7F00
7E00
4000
4000
4000
4000
4000
4000
4000
C000
ENDCHAR
STARTCHAR 081
ENCODING 81
SWIDTH 864 0
DWIDTH 12 0
BBX 11 19 1 -2
BITMAP
3E00
7F00
7F80
7F80
C1C0
C0C0
C0C0
C060
C060
C060
C060
C660
C660
4340
63C0
3FC0
3FC0
00E0
0020
ENDCHAR
STARTCHAR 082
ENCODING 82
SWIDTH 864 0
DWIDTH 12 0
BBX 11 17 1 0
BITMAP
FC00
7F00
7F00
4300
4100
4100
4300
4300
7E00
7C00
4E00
4700
4700
6360
73E0
71E0
F0C0
ENDCHAR
STARTCHAR 083
ENCODING 83
SWIDTH 864 0
DWIDTH 12 0
BBX 11 16 1 0
BITMAP
0F00
1F80
39C0
30E0
2000
2000
3000
3F00
0F00
0180
00C0
C0C0
60C0
30C0
3FC0
0F80
ENDCHAR
STARTCHAR 084
ENCODING 84
SWIDTH 864 0
DWIDTH 12 0
BBX 11 16 1 0
BITMAP
FFE0
FFE0
FFE0
8E20
0E00
0E00
0E00
0E00
0E00
0E00
0E00
0E00
0E00
0E00
0E00
1F00
ENDCHAR
STARTCHAR 085
ENCODING 85
SWIDTH 864 0
DWIDTH 12 0
BBX 9 16 2 0
BITMAP
C180
C180
C180
C180
C180
C180
C180
C180
C180
C180
C180
C180
C180
6300
7E00
7E00
ENDCHAR
STARTCHAR 086
ENCODING 86
SWIDTH 864 0
DWIDTH 12 0
BBX 10 16 1 0
BITMAP
F1C0
E0C0
40C0
40C0
60C0
6080
6180
6180
3380
3300
3300
3300
1E00
1E00
0C00
0C00
ENDCHAR
STARTCHAR 087
ENCODING 87
SWIDTH 864 0
DWIDTH 12 0
BBX 11 16 1 0
BITMAP
C0E0
40C0
40C0
40C0
40C0
40C0
40C0
40C0
44C0
46C0
4EC0
5BC0
79C0
71C0
60C0
4080
ENDCHAR
STARTCHAR 088
ENCODING 88
SWIDTH 864 0
DWIDTH 12 0
BBX 11 18 1 0
BITMAP
C0E0
E0C0
6080
3180
3980
1B00
1F00
0E00
0E00
0E00
1F00
1B00
3900
3180
3180
6080
E0C0
C0E0
ENDCHAR
STARTCHAR 089
ENCODING 89
SWIDTH 864 0
DWIDTH 12 0
BBX 11 19 1 -1
BITMAP
C0E0
C0E0
60C0
6080
2180
3180
3380
1300
1B00
0E00
0C00
0400
0400
0400
0400
0400
0400
1F00
0E00
ENDCHAR
STARTCHAR 090
ENCODING 90
SWIDTH 864 0
DWIDTH 12 0
BBX 11 16 1 0
BITMAP
4000
FFC0
FFC0
0300
0300
0700
0700
0C00
0C00
0C00
3800
3800
3020
7060
FFC0
FF80
ENDCHAR
STARTCHAR 091
ENCODING 91
SWIDTH 864 0
DWIDTH 12 0
BBX 5 20 4 -3
BITMAP
F8
F8
F8
C0
C0
C0
C0
C0
C0
C0
C0
C0
C0
C0
C0
C0
C0
F8
F8
F8
ENDCHAR
STARTCHAR 092
ENCODING 92
SWIDTH 864 0
DWIDTH 12 0
BBX 7 16 3 0
BITMAP
C0
C0
60
60
20
20
10
10
18
18
0C
0C
04
06
06
02
ENDCHAR
STARTCHAR 093
ENCODING 93
SWIDTH 864 0
DWIDTH 12 0
BBX 5 20 4 -3
BITMAP
F8
F8
F8
08
08
08
48
48
08
08
08
08
08
08
08
08
08
F8
F8
F8
ENDCHAR
STARTCHAR 094
ENCODING 94
SWIDTH 864 0
DWIDTH 12 0
BBX 9 10 2 6
BITMAP
0800
1800
1C00
3E00
3E00
7600
6300
6300
E180
C180
ENDCHAR
STARTCHAR 095
ENCODING 95
SWIDTH 864 0
DWIDTH 12 0
BBX 12 3 0 -3
BITMAP
FFF0
FFF0
FFF0
ENDCHAR
STARTCHAR 096
ENCODING 96
SWIDTH 864 0
DWIDTH 12 0
BBX 3 7 6 9
BITMAP
C0
E0
E0
C0
C0
40
60
ENDCHAR
STARTCHAR 097
ENCODING 97
SWIDTH 864 0
DWIDTH 12 0
BBX 8 11 3 0
BITMAP
02
3E
FC
EC
C4
C4
C4
C5
ED
7E
32
ENDCHAR
STARTCHAR 098
ENCODING 98
SWIDTH 864 0
DWIDTH 12 0
BBX 8 18 3 -1
BITMAP
20
60
E0
E0
60
60
60
60
7E
7E
72
63
63
63
63
7E
FC
80
ENDCHAR
STARTCHAR 099
ENCODING 99
SWIDTH 864 0
DWIDTH 12 0
BBX 7 11 3 0
BITMAP
1C
3E
62
E0
E0
E0
E0
E0
E2
7E
3C
ENDCHAR
STARTCHAR 100
ENCODING 100
SWIDTH 864 0
DWIDTH 12 0
BBX 8 18 3 0
BITMAP
04
04
06
06
06
06
06
06
36
FE
EE
C6
86
86
86
86
FF
FE
ENDCHAR
STARTCHAR 101
ENCODING 101
SWIDTH 864 0
DWIDTH 12 0
BBX 7 12 3 0
BITMAP
1C
3E
7E
E2
E6
FC
F8
C0
E0
E0
7E
1C
ENDCHAR
STARTCHAR 102
ENCODING 102
SWIDTH 864 0
DWIDTH 12 0
BBX 7 16 3 0
BITMAP
1C
1E
1A
18
18
18
18
98
FE
FE
1A
18
18
18
18
18
ENDCHAR
STARTCHAR 103
ENCODING 103
SWIDTH 864 0
DWIDTH 12 0
BBX 7 17 3 -3
BITMAP
18
1E
3E
66
66
64
64
3C
18
1E
1E
64
E4
C8
98
90
E0
ENDCHAR
STARTCHAR 104
ENCODING 104
SWIDTH 864 0
DWIDTH 12 0
BBX 9 17 3 -1
BITMAP
4000
C000
C000
C000
C000
C000
C000
C000
C000
D800
FC00
EC00
E400
C400
C580
C780
E700
ENDCHAR
STARTCHAR 105
ENCODING 105
SWIDTH 864 0
DWIDTH 12 0
BBX 4 16 5 0
BITMAP
60
60
60
00
00
00
60
60
60
60
60
60
60
60
60
F0
ENDCHAR
STARTCHAR 106
ENCODING 106
SWIDTH 864 0
DWIDTH 12 0
BBX 6 19 3 -3
BITMAP
04
04
04
00
00
00
04
04
04
04
04
04
04
04
C4
CC
DC
F8
70
ENDCHAR
STARTCHAR 107
ENCODING 107
SWIDTH 864 0
DWIDTH 12 0
BBX 8 14 3 -1
BITMAP
C0
C0
C0
C6
CE
DA
D0
E0
F0
D8
DC
CD
C7
C3
ENDCHAR
STARTCHAR 108
ENCODING 108
SWIDTH 864 0
DWIDTH 12 0
BBX 6 17 3 0
BITMAP
0C
1C
14
34
34
24
2C
2C
78
70
60
C0
C4
4C
4C
78
38
ENDCHAR
STARTCHAR 109
ENCODING 109
SWIDTH 864 0
DWIDTH 12 0
BBX 10 11 2 0
BITMAP
3380
7B80
6FC0
CCC0
CCC0
8CC0
89C0
89C0
8180
8100
8100
ENDCHAR
STARTCHAR 110
ENCODING 110
SWIDTH 864 0
DWIDTH 12 0
BBX 10 12 2 0
BITMAP
6000
6000
7C00
FE00
E600
6600
6600
6600
6640
66C0
63C0
E180
ENDCHAR
STARTCHAR 111
ENCODING 111
SWIDTH 864 0
DWIDTH 12 0
BBX 7 10 3 0
BITMAP
3C
66
E6
C2
C2
C2
C2
E6
7E
1C
ENDCHAR
STARTCHAR 112
ENCODING 112
SWIDTH 864 0
DWIDTH 12 0
BBX 7 13 3 -3
BITMAP
7C
7E
62
62
62
7E
7E
7C
60
60
60
60
C0
ENDCHAR
STARTCHAR 113
ENCODING 113
SWIDTH 864 0
DWIDTH 12 0
BBX 9 14 3 -4
BITMAP
7400
FC00
CC00
CC00
8400
8C00
CC00
FC00
7400
0480
0500
0700
0400
0400
ENDCHAR
STARTCHAR 114
ENCODING 114
SWIDTH 864 0
DWIDTH 12 0
BBX 8 12 3 -1
BITMAP
20
20
3C
7F
66
60
60
60
E0
C0
C0
C0
ENDCHAR
STARTCHAR 115
ENCODING 115
SWIDTH 864 0
DWIDTH 12 0
BBX 7 12 3 -1
BITMAP
1C
3C
62
62
20
18
0C
04
04
C4
7C
38
ENDCHAR
STARTCHAR 116
ENCODING 116
SWIDTH 864 0
DWIDTH 12 0
BBX 7 15 3 0
BITMAP
10
10
10
10
F0
FC
1E
10
10
10
10
10
12
1E
1C
ENDCHAR
STARTCHAR 117
ENCODING 117
SWIDTH 864 0
DWIDTH 12 0
BBX 7 10 3 0
BITMAP
82
82
82
82
82
82
C2
E6
7E
3C
ENDCHAR
STARTCHAR 118
ENCODING 118
SWIDTH 864 0
DWIDTH 12 0
BBX 10 11 2 0
BITMAP
F1C0
60C0
6180
6100
7100
3300
1300
1A00
1A00
0E00
0C00
ENDCHAR
STARTCHAR 119
ENCODING 119
SWIDTH 864 0
DWIDTH 12 0
BBX 11 10 1 0
BITMAP
C060
40E0
40C0
60C0
2080
2480
2E80
3B80
3380
1100
ENDCHAR
STARTCHAR 120
ENCODING 120
SWIDTH 864 0
DWIDTH 12 0
BBX 7 11 3 0
BITMAP
82
C6
6C
38
10
10
10
38
6C
C6
82
ENDCHAR
STARTCHAR 121
ENCODING 121
SWIDTH 864 0
DWIDTH 12 0
BBX 7 13 3 -3
BITMAP
C2
E6
66
66
24
34
1C
18
18
30
20
E0
E0
ENDCHAR
STARTCHAR 122
ENCODING 122
SWIDTH 864 0
DWIDTH 12 0
BBX 8 11 3 0
BITMAP
FF
FF
06
06
0C
1C
18
30
60
FF
FF
ENDCHAR
STARTCHAR 123
ENCODING 123
SWIDTH 864 0
DWIDTH 12 0
BBX 6 20 3 -3
BITMAP
1C
30
20
60
60
60
60
60
C0
80
C0
60
60
60
60
60
60
20
38
1C
ENDCHAR
STARTCHAR 124
ENCODING 124
SWIDTH 864 0
DWIDTH 12 0
BBX 2 19 6 -3
BITMAP
C0
C0
C0
C0
C0
C0
C0
C0
C0
C0
C0
C0
C0
C0
C0
C0
C0
C0
C0
ENDCHAR
STARTCHAR 125
ENCODING 125
SWIDTH 864 0
DWIDTH 12 0
BBX 6 20 3 -3
BITMAP
E0
30
10
18
18
18
18
18
0C
04
0C
18
18
18
18
18
18
10
70
E0
ENDCHAR
STARTCHAR 126
ENCODING 126
SWIDTH 864 0
DWIDTH 12 0
BBX 9 9 2 1
BITMAP
7180
7980
CF00
8600
0000
7180
7980
CF00
8600
ENDCHAR
STARTCHAR 127
ENCODING 127
SWIDTH 864 0
DWIDTH 12 0
BBX 12 24 0 -4
BITMAP
FFF0
FFF0
FFF0
FFF0
FFF0
FFF0
FFF0
FFF0
FFF0
FFF0
FFF0
FFF0
FFF0
FFF0
FFF0
FFF0
FFF0
FFF0
FFF0
FFF0
FFF0
FFF0
FFF0
FFF0
ENDCHAR
STARTCHAR 128
ENCODING 128
SWIDTH 864 0
DWIDTH 12 0
BBX 12 22 0 -4
BITMAP
FFF0
FFF0
E030
E010
CFD0
8300
8000
8B00
0820
0B20
C820
C920
0920
0920
0920
0920
0920
0920
0920
C920
0920
0920
ENDCHAR
STARTCHAR 129
ENCODING 129
SWIDTH 864 0
DWIDTH 12 0
BBX 5 21 1 -4
BITMAP
C0
C0
80
80
C0
C0
C0
C0
C0
C0
F8
F8
C0
C0
C0
C0
C0
C0
80
C0
C0
ENDCHAR
STARTCHAR 130
ENCODING 130
SWIDTH 864 0
DWIDTH 12 0
BBX 10 17 1 -1
BITMAP
F3C0
E1C0
C0C0
C0C0
C0C0
C0C0
C0C0
C0C0
C0C0
C0C0
C0C0
C0C0
E0C0
71C0
7FC0
3F80
1F00
ENDCHAR
STARTCHAR 131
ENCODING 131
SWIDTH 864 0
DWIDTH 12 0
BBX 11 22 1 -3
BITMAP
0C00
1E00
1200
1E00
1200
1E00
0C00
0E00
1F00
3F00
3F80
6EC0
CEE0
0E00
1F00
1F00
3F80
0400
0400
0400
0400
0400
ENDCHAR
STARTCHAR 132
ENCODING 132
SWIDTH 864 0
DWIDTH 12 0
BBX 10 12 2 2
BITMAP
0C00
0C00
2D00
2D00
2D00
AD40
AD40
2D00
2D00
2D00
0C00
0C00
ENDCHAR
STARTCHAR 133
ENCODING 133
SWIDTH 864 0
DWIDTH 12 0
BBX 10 20 2 -4
BITMAP
2880
5F00
3200
7EC0
6EC0
ED00
7F00
BDC0
7D00
6EC0
7F00
FE40
F2C0
1380
3E00
5F00
0C00
0C00
0C00
0C00
ENDCHAR
STARTCHAR 134
ENCODING 134
SWIDTH 864 0
DWIDTH 12 0
BBX 10 17 2 -4
BITMAP
1000
0A00
1000
2680
5500
2E00
2E00
7B40
1F80
AF00
AD00
7FC0
B700
D680
2F00
0C00
0C00
ENDCHAR
STARTCHAR 135
ENCODING 135
SWIDTH 864 0
DWIDTH 12 0
BBX 10 20 2 -4
BITMAP
6900
3400
0800
6540
3600
9C00
0C80
0B00
B800
2E80
CD00
1900
3800
6E00
2C00
4800
0800
0C00
0C00
0C00
ENDCHAR
STARTCHAR 136
ENCODING 136
SWIDTH 864 0
DWIDTH 12 0
BBX 12 24 0 -4
BITMAP
1B10
1B10
0070
C060
6480
2740
1830
F880
F880
0740
0740
D830
D830
2700
DCB0
00E0
00C0
2700
DB30
DB30
00C0
04E0
2F20
2B30
ENDCHAR
STARTCHAR 137
ENCODING 137
SWIDTH 864 0
DWIDTH 12 0
BBX 12 24 0 -4
BITMAP
8200
8400
4420
8400
8840
1080
8900
0200
9000
8420
4240
8900
0000
1200
A020
04C0
9200
1080
6600
8060
4880
4440
A820
D770
ENDCHAR
STARTCHAR 138
ENCODING 138
SWIDTH 864 0
DWIDTH 12 0
BBX 12 4 0 6
BITMAP
2490
6DB0
FFF0
DB40
ENDCHAR
STARTCHAR 139
ENCODING 139
SWIDTH 864 0
DWIDTH 12 0
BBX 10 22 1 -3
BITMAP
2200
0000
0880
8000
0200
2000
0000
0800
0000
3300
5F80
FF80
8CC0
8840
0800
0800
0800
7F80
C8C0
8840
C0C0
7F80
ENDCHAR
STARTCHAR 140
ENCODING 140
SWIDTH 864 0
DWIDTH 12 0
BBX 12 14 0 -4
BITMAP
00E0
0FB0
0FF0
39D0
5D30
7330
F330
DBF0
DFE0
C020
79B0
DF10
DF90
1DB0
ENDCHAR
STARTCHAR 141
ENCODING 141
SWIDTH 864 0
DWIDTH 12 0
BBX 11 23 1 -4
BITMAP
1200
1200
2A00
2E00
3E00
1220
1E20
1C60
2C60
2CE0
20C0
3DC0
7E80
7FE0
FC80
FD00
FF00
FD00
FF00
FF00
FF00
FF00
9200
ENDCHAR
STARTCHAR 142
ENCODING 142
SWIDTH 864 0
DWIDTH 12 0
BBX 12 20 0 -3
BITMAP
0300
0780
1FC0
3FE0
DFE0
EFD0
F7B0
FB70
FCF0
FDF0
FDF0
FDF0
FDF0
FDF0
7DF0
3DF0
1DE0
0580
0300
0200
ENDCHAR
STARTCHAR 143
ENCODING 143
SWIDTH 864 0
DWIDTH 12 0
BBX 12 24 0 -4
BITMAP
8000
4000
4000
2010
0020
0000
1040
0800
0480
0480
0000
0100
0200
0300
0000
0080
0480
0800
1040
0000
0020
2010
2000
4000
ENDCHAR
STARTCHAR 144
ENCODING 144
SWIDTH 864 0
DWIDTH 12 0
BBX 12 24 0 -4
BITMAP
8000
4000
4000
2010
0020
0000
1040
0800
0480
0480
0000
0100
0200
0300
0000
0080
0480
0800
1040
0000
0020
2010
2000
4000
ENDCHAR
STARTCHAR 145
ENCODING 145
SWIDTH 864 0
DWIDTH 12 0
BBX 12 24 0 -4
BITMAP
BBE0
FFF0
F5F0
5FD0
EFF0
AFA0
FFF0
FFA0
F6F0
7F70
FFF0
7EF0
FF30
F9F0
DF70
7F70
EFF0
FED0
FFF0
FED0
C7F0
FEA0
FFF0
DB70
ENDCHAR
STARTCHAR 146
ENCODING 146
SWIDTH 864 0
DWIDTH 12 0
BBX 12 24 0 -4
BITMAP
FFF0
7BF0
7BF0
3330
8400
CCC0
FFF0
7BF0
7BF0
3330
3330
CCC0
FFF0
FFF0
7BF0
3330
3330
8400
FFF0
FFF0
7BF0
3330
B730
CCC0
ENDCHAR
STARTCHAR 147
ENCODING 147
SWIDTH 864 0
DWIDTH 12 0
BBX 10 14 1 -1
BITMAP
0400
0E00
1F00
3B80
69C0
C8C0
FFC0
C4C0
E580
7580
3F00
1E00
0E00
0400
ENDCHAR
STARTCHAR 148
ENCODING 148
SWIDTH 864 0
DWIDTH 12 0
BBX 12 23 0 -4
BITMAP
38B0
7CF0
5EF0
1C60
0000
0000
FBF0
F5F0
FBB0
FED0
0000
0000
7CD0
FCF0
FEF0
7CF0
B8A0
0000
3DE0
79F0
3DF0
7EF0
2D60
ENDCHAR
STARTCHAR 149
ENCODING 149
SWIDTH 864 0
DWIDTH 12 0
BBX 12 24 0 -4
BITMAP
FBB0
7BF0
9D50
BED0
75B0
67F0
15D0
FBF0
7FE0
AF70
5F90
F6A0
1EB0
EFA0
6BF0
9710
7850
FD40
9BF0
77E0
6F50
BCB0
D9F0
E9C0
ENDCHAR
STARTCHAR 150
ENCODING 150
SWIDTH 864 0
DWIDTH 12 0
BBX 12 23 0 -4
BITMAP
38B0
74D0
46F0
1C60
0000
0000
FAE0
F550
CBA0
EED0
0000
0000
7CD0
F470
DAA0
7450
B8A0
0000
3DE0
5950
1950
76D0
4D60
ENDCHAR
STARTCHAR 151
ENCODING 151
SWIDTH 864 0
DWIDTH 12 0
BBX 11 14 1 0
BITMAP
0020
3820
78E0
7E40
FEA0
C740
C780
83A0
3800
7C60
FEE0
E780
C380
8000
ENDCHAR
STARTCHAR 152
ENCODING 152
SWIDTH 864 0
DWIDTH 12 0
BBX 12 17 0 -1
BITMAP
0010
0030
0070
0070
00E0
01C0
0380
2380
2700
2E00
3C00
3C00
1C00
2400
6700
E000
C000
ENDCHAR
STARTCHAR 153
ENCODING 153
SWIDTH 864 0
DWIDTH 12 0
BBX 10 23 1 -4
BITMAP
C000
C000
7000
3800
3E00
3F00
3F80
3980
3980
3880
3980
3F80
3F00
38C0
38C0
3840
38C0
1F80
2F80
2F00
3800
7800
F000
ENDCHAR
STARTCHAR 154
ENCODING 154
SWIDTH 864 0
DWIDTH 12 0
BBX 11 17 1 -1
BITMAP
00C0
0FC0
3FC0
3FC0
7BC0
7BC0
79C0
F000
F000
C000
C000
C000
C000
FAE0
7D80
3F00
3F00
ENDCHAR
STARTCHAR 155
ENCODING 155
SWIDTH 864 0
DWIDTH 12 0
BBX 12 19 0 -3
BITMAP
1F00
1F80
1FC0
19E0
18E0
1870
3870
7870
E870
E870
7870
3870
1870
1870
18E0
19E0
1F80
1F80
1F00
ENDCHAR
STARTCHAR 156
ENCODING 156
SWIDTH 864 0
DWIDTH 12 0
BBX 12 19 0 -3
BITMAP
FFC0
7FE0
14F0
1C70
1C70
1C30
1C30
1C30
1C30
1C30
1C30
1C30
1C30
1C30
1C70
1470
3FF0
7FE0
FFC0
ENDCHAR
STARTCHAR 157
ENCODING 157
SWIDTH 864 0
DWIDTH 12 0
BBX 12 24 0 -4
BITMAP
8000
4000
4000
2010
0020
0000
1040
0800
0480
0480
0000
0100
0200
0300
0000
0080
0480
0800
1040
0000
0020
2010
2000
4000
ENDCHAR
STARTCHAR 158
ENCODING 158
SWIDTH 864 0
DWIDTH 12 0
BBX 7 22 3 -2
BITMAP
18
18
10
10
30
20
60
60
C2
FE
FE
C4
04
04
0C
1C
18
18
50
40
7C
70
ENDCHAR
STARTCHAR 159
ENCODING 159
SWIDTH 864 0
DWIDTH 12 0
BBX 12 19 0 -1
BITMAP
0300
6300
2420
0420
0420
0FC0
0EB0
CEB0
EEA0
2D40
05D0
14C0
03B0
D3B0
3F60
3D10
06D0
1EB0
1EF0
ENDCHAR
STARTCHAR 160
ENCODING 160
SWIDTH 864 0
DWIDTH 12 0
BBX 11 19 0 -1
BITMAP
0F00
0900
0F00
C960
CF60
0000
6060
6F60
6F60
0F00
0F00
0F00
0000
38C0
38C0
38C0
00E0
70E0
70E0
ENDCHAR
STARTCHAR 161
ENCODING 161
SWIDTH 864 0
DWIDTH 12 0
BBX 12 21 0 -2
BITMAP
6310
2F90
3AB0
1FF0
1CC0
1FB0
3FB0
FAF0
FAB0
DA90
DA90
E890
FFB0
0FB0
3F80
1CC0
1860
0820
1820
3870
6850
ENDCHAR
STARTCHAR 162
ENCODING 162
SWIDTH 864 0
DWIDTH 12 0
BBX 12 24 0 -4
BITMAP
0380
07C0
17C0
3390
6030
E330
E7B0
FD70
7FF0
7FF0
3FF0
0FC0
0FC0
0FC0
1FC0
1FE0
7FF0
7FF0
3070
3030
1870
18C0
10C0
20F0
ENDCHAR
STARTCHAR 163
ENCODING 163
SWIDTH 864 0
DWIDTH 12 0
BBX 11 23 0 -4
BITMAP
0100
01A0
00E0
00E0
0060
0060
0060
0060
0060
0060
30E0
79E0
79E0
FFE0
FFE0
DFE0
FFE0
F7C0
D780
EF80
2F00
1E00
3800
ENDCHAR
STARTCHAR 164
ENCODING 164
SWIDTH 864 0
DWIDTH 12 0
BBX 10 22 1 -3
BITMAP
6C00
FE00
D600
DE00
8C00
0C00
3300
3F80
7F80
7CC0
CC40
E4C0
7800
0700
1F00
3F00
3F00
7F80
FF80
E780
2000
6080
ENDCHAR
STARTCHAR 165
ENCODING 165
SWIDTH 864 0
DWIDTH 12 0
BBX 12 21 0 -2
BITMAP
0300
0480
0300
0000
1740
1760
3F60
7D70
76F0
F170
EB30
FFF0
FFF0
FB70
FF70
77F0
77F0
5F80
4580
0480
1CC0
ENDCHAR
STARTCHAR 166
ENCODING 166
SWIDTH 864 0
DWIDTH 12 0
BBX 12 23 0 -3
BITMAP
0070
0370
03F0
06F0
0EF0
0DF0
0DF0
0FF0
0FA0
1B70
1B60
0380
37C0
E440
AD00
1E00
1F00
0FC0
07E0
1BF0
11F0
14E0
0400
ENDCHAR
STARTCHAR 167
ENCODING 167
SWIDTH 864 0
DWIDTH 12 0
BBX 12 17 0 -3
BITMAP
D800
D800
F800
A800
F830
FC30
7C10
3FD0
3FF0
1FF0
17E0
17F0
14F0
1450
1450
0050
00B0
ENDCHAR
STARTCHAR 168
ENCODING 168
SWIDTH 864 0
DWIDTH 12 0
BBX 12 22 0 -3
BITMAP
0200
0F00
0370
0770
0360
A3C0
E3C0
33D0
7BA0
1FB0
1FF0
1F70
1FE0
0FC0
07C0
0380
03C0
03C0
1DC0
3FF0
3FF0
1B70
ENDCHAR
STARTCHAR 169
ENCODING 169
SWIDTH 864 0
DWIDTH 12 0
BBX 12 20 0 -3
BITMAP
2020
68B0
68B0
EDB0
EFB0
EAF0
FFB0
8FE0
F770
F230
F8F0
3DB0
FF50
4760
0FE0
1FE0
1CC0
0840
3EF0
2AA0
ENDCHAR
STARTCHAR 170
ENCODING 170
SWIDTH 864 0
DWIDTH 12 0
BBX 12 24 0 -4
BITMAP
0700
6500
9520
6D40
37A0
0F40
0F80
0A00
0D00
0700
1F00
5500
0500
E730
7FF0
7FE0
3A80
7AA0
5FA0
0FC0
4720
0700
0700
0700
ENDCHAR
STARTCHAR 171
ENCODING 171
SWIDTH 864 0
DWIDTH 12 0
BBX 12 17 0 -1
BITMAP
2220
1240
9240
4F80
4F80
4DD0
38E0
1040
1240
7240
98C0
98E0
1DD0
1780
0240
2220
4220
ENDCHAR
STARTCHAR 172
ENCODING 172
SWIDTH 864 0
DWIDTH 12 0
BBX 9 19 2 -1
BITMAP
1F00
3E80
6180
4180
2380
1F80
1F80
3780
3E00
6E00
5E00
7C00
5C00
5800
D800
F000
A000
E000
8000
ENDCHAR
STARTCHAR 173
ENCODING 173
SWIDTH 864 0
DWIDTH 12 0
BBX 12 12 0 -2
BITMAP
2430
2C30
7C10
6C10
7F10
3FF0
7FF0
3FF0
7EF0
EC50
98D0
1030
ENDCHAR
STARTCHAR 174
ENCODING 174
SWIDTH 864 0
DWIDTH 12 0
BBX 12 20 0 -3
BITMAP
01C0
0220
0410
0550
0800
3810
3080
71B0
B110
6800
B040
0020
30B0
29C0
5140
9C30
7340
B200
0400
4000
ENDCHAR
STARTCHAR 175
ENCODING 175
SWIDTH 864 0
DWIDTH 12 0
BBX 11 18 0 -2
BITMAP
0700
1F00
0D00
0720
0D20
0F20
1D20
39A0
38A0
3AE0
7A60
7A80
F940
F920
FAA0
E080
0000
30C0
ENDCHAR
STARTCHAR 176
ENCODING 176
SWIDTH 864 0
DWIDTH 12 0
BBX 6 18 4 -3
BITMAP
70
50
70
30
38
38
3C
34
34
74
74
74
BC
2C
28
28
28
28
ENDCHAR
STARTCHAR 177
ENCODING 177
SWIDTH 864 0
DWIDTH 12 0
BBX 11 22 1 -3
BITMAP
0020
0060
0060
0660
0940
0B40
0940
0640
29E0
1660
D6E0
EFE0
F0E0
F400
CB00
D400
CB00
5F00
1B00
1900
3980
3980
ENDCHAR
STARTCHAR 178
ENCODING 178
SWIDTH 864 0
DWIDTH 12 0
BBX 11 22 0 -3
BITMAP
0020
0020
2C40
14C0
0080
0D80
3500
2000
3E00
2E00
3200
3800
1800
3C00
3C00
3400
3400
6200
6200
4200
4200
C300
ENDCHAR
STARTCHAR 179
ENCODING 179
SWIDTH 864 0
DWIDTH 12 0
BBX 12 23 0 -3
BITMAP
2010
2010
3030
1C60
0380
0100
0380
0F40
2FD0
7030
7030
E450
E7D0
6030
6FF0
0780
0C40
1C60
1C70
1830
1830
2010
6010
ENDCHAR
STARTCHAR 180
ENCODING 180
SWIDTH 864 0
DWIDTH 12 0
BBX 11 22 1 -3
BITMAP
0100
0500
0040
0000
0060
0EE0
3FA0
FFA0
7FE0
7EE0
FCE0
59C0
DBE0
C7E0
47C0
7F80
7F80
FB80
7980
3000
0080
8000
ENDCHAR
STARTCHAR 181
ENCODING 181
SWIDTH 864 0
DWIDTH 12 0
BBX 12 15 0 1
BITMAP
1C00
3F00
7FC0
F7F0
63C0
6000
7870
3FF0
3FF0
1C30
0030
1FF0
7FF0
5FF0
F000
ENDCHAR
STARTCHAR 182
ENCODING 182
SWIDTH 864 0
DWIDTH 12 0
BBX 12 20 0 -2
BITMAP
62A0
62A0
A3E0
63E0
2200
2140
25E0
2110
2ED0
2080
7340
6080
23E0
24B0
22D0
2420
2430
2010
2430
3C30
ENDCHAR
STARTCHAR 183
ENCODING 183
SWIDTH 864 0
DWIDTH 12 0
BBX 12 24 0 -4
BITMAP
2400
0090
9260
6FC0
0FE0
1690
37C0
C0A0
0390
0380
0F80
1F40
1B60
1360
2760
27B0
2F80
1F80
1FC0
1FE0
1FE0
23E0
12C0
1900
ENDCHAR
STARTCHAR 184
ENCODING 184
SWIDTH 864 0
DWIDTH 12 0
BBX 11 18 1 0
BITMAP
8000
5520
6AC0
35C0
3A80
B580
5B40
BFA0
7F40
7F40
BFA0
5F40
3B80
3580
2AC0
7540
CAE0
8020
ENDCHAR
STARTCHAR 185
ENCODING 185
SWIDTH 864 0
DWIDTH 12 0
BBX 12 22 0 -4
BITMAP
0780
0CC0
0840
0840
0480
17E0
1BD0
2C70
2FA0
6740
E380
C490
F3D0
78A0
1F70
1C50
0060
0060
1860
1860
1870
3030
ENDCHAR
STARTCHAR 186
ENCODING 186
SWIDTH 864 0
DWIDTH 12 0
BBX 12 22 0 -3
BITMAP
0020
0050
0650
0750
0F20
0E60
09E0
38A0
2A20
0460
5520
91A0
BB60
0420
3820
E0A0
0020
4020
4E60
F0F0
FFA0
3B00
ENDCHAR
STARTCHAR 187
ENCODING 187
SWIDTH 864 0
DWIDTH 12 0
BBX 12 19 0 -2
BITMAP
0380
0380
0280
0FC0
0FC0
8FE0
5FF0
3FB0
1BB0
1BE0
07C0
07C0
07C0
07C0
0FC0
0FE0
0FE0
1C30
1830
ENDCHAR
STARTCHAR 188
ENCODING 188
SWIDTH 864 0
DWIDTH 12 0
BBX 12 21 0 -3
BITMAP
4200
2500
1700
1B00
0E80
2E00
2CF0
6CF0
02F0
26F0
2E70
1BB0
1570
3270
6960
1040
00A0
2080
40C0
60C0
E060
ENDCHAR
STARTCHAR 189
ENCODING 189
SWIDTH 864 0
DWIDTH 12 0
BBX 12 22 0 -2
BITMAP
0100
0100
07B0
07B0
7FF0
7EF0
7EF0
7870
6030
6030
FCF0
7CE0
7CE0
1CA0
18E0
18E0
3A20
3A30
3360
3FE0
3FE0
1C00
ENDCHAR
STARTCHAR 190
ENCODING 190
SWIDTH 864 0
DWIDTH 12 0
BBX 12 24 0 -4
BITMAP
03C0
03C0
0280
0FC0
3DC0
30C0
32F0
E630
E8B0
E5B0
D230
A9B0
6090
F590
04D0
10C0
0840
0640
3660
F570
F370
F070
3000
3000
ENDCHAR
STARTCHAR 191
ENCODING 191
SWIDTH 864 0
DWIDTH 12 0
BBX 12 20 0 -3
BITMAP
0010
0070
01F0
0060
0FF0
1FF0
1FC0
7F80
FFC0
FFC0
FFC0
FFE0
FF70
FF70
FF60
FB80
F980
FC00
6400
2000
ENDCHAR
STARTCHAR 192
ENCODING 192
SWIDTH 864 0
DWIDTH 12 0
BBX 10 18 0 -2
BITMAP
0400
0600
0580
0780
C780
6600
6740
2780
2FC0
3F40
1E00
0E00
1E00
1C00
1C00
0A00
0900
0400
ENDCHAR
STARTCHAR 193
ENCODING 193
SWIDTH 864 0
DWIDTH 12 0
BBX 11 18 0 -2
BITMAP
1FC0
1FC0
7FE0
F320
CFE0
DFE0
D8E0
DAE0
DAE0
D8E0
DEE0
DEE0
DF60
57C0
7C40
7FA0
3E60
0020
ENDCHAR
STARTCHAR 194
ENCODING 194
SWIDTH 864 0
DWIDTH 12 0
BBX 11 13 1 -3
BITMAP
1000
7300
D780
FFC0
7FE0
3FE0
3FE0
0BE0
0360
0120
0020
0020
00C0
ENDCHAR
STARTCHAR 195
ENCODING 195
SWIDTH 864 0
DWIDTH 12 0
BBX 12 24 0 -4
BITMAP
0C00
1E40
1F60
3DB0
7FB0
EF90
D790
7F90
BF90
FBD0
E7D0
07D0
0FD0
5BD0
3BF0
53F0
23F0
43F0
06E0
0660
0660
0640
0440
0C80
ENDCHAR
STARTCHAR 196
ENCODING 196
SWIDTH 864 0
DWIDTH 12 0
BBX 10 24 2 -4
BITMAP
1800
3C00
FC00
FE00
3E00
FE00
3E00
1E00
7E40
7E40
DE40
9EC0
9EC0
DFC0
1FC0
1F80
1F80
1F00
3E00
3E00
3A00
1200
3200
7600
ENDCHAR
STARTCHAR 197
ENCODING 197
SWIDTH 864 0
DWIDTH 12 0
BBX 12 22 0 -3
BITMAP
0700
0F80
4AA0
2FA0
E710
A030
4700
2210
0500
0880
1040
0700
0880
1240
0100
0480
0840
0440
0440
0280
0480
04C0
ENDCHAR
STARTCHAR 198
ENCODING 198
SWIDTH 864 0
DWIDTH 12 0
BBX 12 23 0 -4
BITMAP
0400
0600
0300
7900
7D80
0C80
67F0
FFF0
FD70
C7F0
1F70
1DC0
37F0
6270
C3C0
C3E0
C2A0
00A0
00A0
00B0
00B0
00B0
00B0
ENDCHAR
STARTCHAR 199
ENCODING 199
SWIDTH 864 0
DWIDTH 12 0
BBX 11 19 1 -2
BITMAP
0700
0D80
0F80
1D80
3F80
3FC0
71E0
FBE0
DBA0
DBA0
DFA0
1E60
1980
39C0
3980
0840
18C0
38E0
6820
ENDCHAR
STARTCHAR 200
ENCODING 200
SWIDTH 864 0
DWIDTH 12 0
BBX 10 15 2 -3
BITMAP
7E00
7E00
6D00
F300
F380
B380
81C0
DEC0
F2C0
F3C0
F1C0
69C0
6980
7F00
3F00
ENDCHAR
STARTCHAR 201
ENCODING 201
SWIDTH 864 0
DWIDTH 12 0
BBX 12 22 0 -3
BITMAP
4020
C920
E970
E970
FFF0
AAF0
DFE0
2FF0
1FF0
74B0
EAD0
E450
2A20
30E0
1A40
18C0
1980
1980
1980
0000
1980
1980
ENDCHAR
STARTCHAR 202
ENCODING 202
SWIDTH 864 0
DWIDTH 12 0
BBX 11 21 0 -3
BITMAP
0300
0F00
0600
0700
07E0
E780
6FC0
2EE0
2F60
3E00
3F00
3F00
1FC0
1C40
0C80
06C0
0400
0400
0800
0800
0800
ENDCHAR
STARTCHAR 203
ENCODING 203
SWIDTH 864 0
DWIDTH 12 0
BBX 11 23 1 -4
BITMAP
0600
0900
08C0
1540
1240
1040
3740
3560
6060
6060
4060
4060
4060
4060
5120
5B20
4E60
44E0
60C0
30C0
F9E0
C060
1900
ENDCHAR
STARTCHAR 204
ENCODING 204
SWIDTH 864 0
DWIDTH 12 0
BBX 12 22 0 -3
BITMAP
07C0
07C0
05C0
0CC0
0CC0
0C40
1FC0
1FE0
3FF0
63D0
E3D0
E7C0
C7C0
8FC0
0FC0
0FC0
1FE0
1FE0
1FE0
3FE0
03E0
03E0
ENDCHAR
STARTCHAR 205
ENCODING 205
SWIDTH 864 0
DWIDTH 12 0
BBX 11 24 1 -4
BITMAP
0020
5460
7C20
7C60
7C20
7C60
7C20
7C60
FC20
FC60
FE20
FE60
FE20
FF20
FEE0
FEA0
E7E0
A760
BF00
FF00
FF00
2300
3380
3B80
ENDCHAR
STARTCHAR 206
ENCODING 206
SWIDTH 864 0
DWIDTH 12 0
BBX 11 23 1 -4
BITMAP
F800
AA00
FF80
FFC0
F740
FAC0
DDC0
9DC0
9DC0
DDC0
DDC0
ED80
EF80
EF80
CD80
BF80
B9A0
FCE0
1860
1060
1840
1020
3880
ENDCHAR
STARTCHAR 207
ENCODING 207
SWIDTH 864 0
DWIDTH 12 0
BBX 12 15 0 1
BITMAP
1C00
1E00
0300
FF80
E3C0
0FF0
1FF0
E7F0
1FF0
1BF0
E4F0
CC70
1810
3000
6000
ENDCHAR
STARTCHAR 208
ENCODING 208
SWIDTH 864 0
DWIDTH 12 0
BBX 12 23 0 -4
BITMAP
0380
0100
0380
0380
2000
A380
3F90
6FD0
D750
61D0
0580
0780
0600
0780
0280
0C80
0C80
0C80
0480
0480
0480
1CC0
1CC0
ENDCHAR
STARTCHAR 209
ENCODING 209
SWIDTH 864 0
DWIDTH 12 0
BBX 11 20 0 -3
BITMAP
FE00
6F80
3FC0
38E0
38E0
38E0
38E0
E8E0
78E0
38E0
38E0
38E0
38E0
38E0
F8E0
68E0
39E0
3F80
3F80
3F00
ENDCHAR
STARTCHAR 210
ENCODING 210
SWIDTH 864 0
DWIDTH 12 0
BBX 11 22 0 -3
BITMAP
FE00
7F80
21C0
20E0
3EE0
F8E0
7060
2060
2060
3E60
F860
F060
2060
2060
3E60
F860
60E0
21E0
3FC0
3F80
3F80
3E00
ENDCHAR
STARTCHAR 211
ENCODING 211
SWIDTH 864 0
DWIDTH 12 0
BBX 10 19 1 -1
BITMAP
FE00
7F00
7380
7180
61C0
6BC0
6BC0
61C0
61C0
61C0
6DC0
6DC0
61C0
61C0
7380
7F80
FF00
6380
52C0
ENDCHAR
STARTCHAR 212
ENCODING 212
SWIDTH 864 0
DWIDTH 12 0
BBX 12 22 0 -3
BITMAP
1F00
3F80
FCC0
FC60
F820
DAB0
9AB0
9AB0
1830
1830
1B30
1B30
1830
1870
18F0
3FE0
FFC0
14F0
04B0
6CD0
FCB0
F920
ENDCHAR
STARTCHAR 213
ENCODING 213
SWIDTH 864 0
DWIDTH 12 0
BBX 11 17 0 -1
BITMAP
FF80
7FC0
3FE0
20E0
26E0
E660
6660
2660
2660
2E60
E760
6660
20E0
20E0
7FC0
7FC0
FF00
ENDCHAR
STARTCHAR 214
ENCODING 214
SWIDTH 864 0
DWIDTH 12 0
BBX 10 17 1 -2
BITMAP
0E00
0F00
0F00
1980
70C0
F0C0
F1C0
FF00
CF00
C600
6200
70C0
71C0
3900
0E00
0E00
0C00
ENDCHAR
STARTCHAR 215
ENCODING 215
SWIDTH 864 0
DWIDTH 12 0
BBX 8 22 3 -3
BITMAP
24
24
00
FC
FC
FE
83
83
80
80
90
BC
EE
84
80
80
80
FE
FE
FE
00
6C
ENDCHAR
STARTCHAR 216
ENCODING 216
SWIDTH 864 0
DWIDTH 12 0
BBX 10 22 1 -3
BITMAP
0400
0E00
1E00
3F00
7F80
F380
E1C0
C0C0
E180
7300
3E00
1E00
0F80
1E00
1E00
3600
3600
2600
2600
3C00
3800
1000
ENDCHAR
STARTCHAR 217
ENCODING 217
SWIDTH 864 0
DWIDTH 12 0
BBX 11 20 0 -1
BITMAP
0020
0060
0FE0
3FE0
3FE0
38E0
60E0
6060
6020
C000
C000
C180
C380
C7C0
60C0
70C0
78C0
3F80
7F00
FE00
ENDCHAR
STARTCHAR 218
ENCODING 218
SWIDTH 864 0
DWIDTH 12 0
BBX 10 17 2 -1
BITMAP
2000
2000
6600
6600
E600
6000
6000
6000
6000
6C00
7E00
7E00
6600
6640
66C0
67C0
7380
ENDCHAR
STARTCHAR 219
ENCODING 219
SWIDTH 864 0
DWIDTH 12 0
BBX 10 17 1 -1
BITMAP
2000
2200
6700
6600
E700
6300
6700
6200
6000
6C00
7E00
7E00
6600
6640
66C0
67C0
7380
ENDCHAR
STARTCHAR 220
ENCODING 220
SWIDTH 864 0
DWIDTH 12 0
BBX 10 19 1 -2
BITMAP
30C0
6180
E180
E300
6180
6180
6180
6180
7F80
7F00
7300
6180
6180
6180
6180
E180
F3C0
F3C0
4100
ENDCHAR
STARTCHAR 221
ENCODING 221
SWIDTH 864 0
DWIDTH 12 0
BBX 10 20 1 -3
BITMAP
0080
0080
01C0
0080
0000
0000
0080
0080
0080
0080
03C0
0080
0080
0080
C0C0
F1C0
B9C0
FB80
1F80
0E00
ENDCHAR
STARTCHAR 222
ENCODING 222
SWIDTH 864 0
DWIDTH 12 0
BBX 9 18 2 -1
BITMAP
0F80
0F80
0780
0380
0380
0280
0380
0280
0280
0380
0280
F280
E380
E280
E380
7F00
7F00
7E00
ENDCHAR
STARTCHAR 223
ENCODING 223
SWIDTH 864 0
DWIDTH 12 0
BBX 9 19 2 -1
BITMAP
E000
6000
A000
E000
A000
E000
A000
E000
A000
E080
A180
E180
A180
A380
FE80
BE80
D080
AB80
FF80
ENDCHAR
STARTCHAR 224
ENCODING 224
SWIDTH 864 0
DWIDTH 12 0
BBX 11 20 0 -2
BITMAP
FF00
7E00
3E00
3C00
3C00
3C00
3C00
3C00
3C00
3C00
3C00
3C20
3C20
3C60
3C60
3FE0
3FE0
3FE0
7FE0
FFE0
ENDCHAR
STARTCHAR 225
ENCODING 225
SWIDTH 864 0
DWIDTH 12 0
BBX 9 13 1 -2
BITMAP
FF00
7F80
3980
3880
3880
3980
3F00
3E00
3000
3000
3000
3000
2000
ENDCHAR
STARTCHAR 226
ENCODING 226
SWIDTH 864 0
DWIDTH 12 0
BBX 11 17 1 -3
BITMAP
FF80
7F80
3FC0
38C0
38E0
38E0
F8E0
78E0
3FC0
3FC0
3F80
3800
3800
3800
3800
3000
3000
ENDCHAR
STARTCHAR 227
ENCODING 227
SWIDTH 864 0
DWIDTH 12 0
BBX 12 17 0 -3
BITMAP
FFC0
67C0
27C0
3470
3C70
FC70
6470
1470
1FF0
3FC0
FFC0
2400
3400
1C00
1C00
1C00
1C00
ENDCHAR
STARTCHAR 228
ENCODING 228
SWIDTH 864 0
DWIDTH 12 0
BBX 11 21 1 -3
BITMAP
0400
0020
8440
4080
2500
0000
7F00
3F80
38C0
39C0
38C0
38C0
3FC0
3F80
3880
3800
3800
3800
3800
3000
2800
ENDCHAR
STARTCHAR 229
ENCODING 229
SWIDTH 864 0
DWIDTH 12 0
BBX 12 21 0 -3
BITMAP
1E10
1360
13C0
21C0
0000
0000
FFC0
FFE0
1C70
1C70
1C70
FC70
3C70
1C70
1FF0
FFE0
FFC0
3C00
1C00
1C00
1C00
ENDCHAR
STARTCHAR 230
ENCODING 230
SWIDTH 864 0
DWIDTH 12 0
BBX 8 18 2 -2
BITMAP
7E
7E
00
00
00
00
FF
7F
73
71
71
73
7E
60
60
60
60
40
ENDCHAR
STARTCHAR 231
ENCODING 231
SWIDTH 864 0
DWIDTH 12 0
BBX 11 20 1 -3
BITMAP
3F00
3F00
0000
FF80
7F80
3FC0
38C0
38E0
78E0
F8E0
78E0
3FC0
3FC0
3F80
3800
3800
3800
3800
3000
3000
ENDCHAR
STARTCHAR 232
ENCODING 232
SWIDTH 864 0
DWIDTH 12 0
BBX 12 19 0 -2
BITMAP
FF80
FFC0
FFC0
FFE0
9C60
1C70
1C70
1C30
1FF0
1FF0
1FF0
1C00
1C00
1C00
1C00
1C00
1C00
3C00
FC00
ENDCHAR
STARTCHAR 233
ENCODING 233
SWIDTH 864 0
DWIDTH 12 0
BBX 9 18 2 -3
BITMAP
0200
0200
0600
3E00
7E00
E600
E600
C200
E600
E600
7E00
3A00
0280
0280
0380
0300
0200
0200
ENDCHAR
STARTCHAR 234
ENCODING 234
SWIDTH 864 0
DWIDTH 12 0
BBX 11 22 1 -3
BITMAP
8000
C000
C000
FF00
FF80
7F80
79C0
70C0
60E0
C0E0
C060
C060
C060
C060
C060
C360
C360
61E0
38C0
3FE0
3F60
0F20
ENDCHAR
STARTCHAR 235
ENCODING 235
SWIDTH 864 0
DWIDTH 12 0
BBX 11 22 1 -3
BITMAP
8020
C060
C060
FFE0
FFE0
7FC0
79C0
70C0
60E0
C0E0
C060
C060
C060
C060
C060
C360
C360
61E0
38C0
3FE0
3F60
0F20
ENDCHAR
STARTCHAR 236
ENCODING 236
SWIDTH 864 0
DWIDTH 12 0
BBX 12 19 0 -2
BITMAP
C300
7F80
3FC0
38C0
1840
1840
1840
18C0
1F80
1F00
1F00
1B80
1B80
19C0
18C0
1040
1060
1020
0010
ENDCHAR
STARTCHAR 237
ENCODING 237
SWIDTH 864 0
DWIDTH 12 0
BBX 12 17 0 -3
BITMAP
0240
0240
03E0
07E0
0FF0
3C30
0C30
1F00
7F80
0F80
00C0
E0C0
3F80
7F80
1D00
3680
0200
ENDCHAR
STARTCHAR 238
ENCODING 238
SWIDTH 864 0
DWIDTH 12 0
BBX 11 18 1 -2
BITMAP
0780
1FC0
1FC0
38E0
3860
3060
3040
3C00
3E00
0F00
01C0
00C0
00C0
60C0
FFC0
FF80
FF80
9E00
ENDCHAR
STARTCHAR 239
ENCODING 239
SWIDTH 864 0
DWIDTH 12 0
BBX 10 14 2 -1
BITMAP
2100
2100
6180
6180
6180
4180
C1C0
C1C0
E1C0
E1C0
F3C0
7F80
7F00
7F00
ENDCHAR
STARTCHAR 240
ENCODING 240
SWIDTH 864 0
DWIDTH 12 0
BBX 9 21 2 -3
BITMAP
8000
8000
8000
8F80
8780
C380
C380
C380
C380
C380
C380
C380
C380
C380
C380
C380
C380
E380
FE00
FE00
3C00
ENDCHAR
STARTCHAR 241
ENCODING 241
SWIDTH 864 0
DWIDTH 12 0
BBX 9 22 2 -3
BITMAP
8080
8080
8080
8080
8080
C180
C180
C180
E380
E380
E380
E380
E380
E380
E380
E380
E380
E380
E380
FF00
7E00
3C00
ENDCHAR
STARTCHAR 242
ENCODING 242
SWIDTH 864 0
DWIDTH 12 0
BBX 11 22 1 -3
BITMAP
99A0
99A0
8920
C020
C060
C660
C660
E460
E060
E0E0
E0E0
E0E0
E0E0
E0E0
E0E0
E0E0
71E0
7BE0
3FC0
3F80
1F80
0E00
ENDCHAR
STARTCHAR 243
ENCODING 243
SWIDTH 864 0
DWIDTH 12 0
BBX 11 12 1 -1
BITMAP
C060
E060
60E0
F0E0
31C0
3980
7980
1900
3B00
1E00
1E00
0400
ENDCHAR
STARTCHAR 244
ENCODING 244
SWIDTH 864 0
DWIDTH 12 0
BBX 11 18 1 -1
BITMAP
6000
7180
3180
0000
0200
0600
C660
E040
20C0
F0E0
3080
3980
79C0
1900
1B80
1F00
0E00
0600
ENDCHAR
STARTCHAR 245
ENCODING 245
SWIDTH 864 0
DWIDTH 12 0
BBX 10 19 1 -2
BITMAP
3F80
3F80
3F80
0000
0000
0000
C040
E040
20C0
F0C0
3080
3980
79C0
1900
3B80
1F00
0600
0E00
0400
ENDCHAR
STARTCHAR 246
ENCODING 246
SWIDTH 864 0
DWIDTH 12 0
BBX 12 14 0 0
BITMAP
1000
5400
5470
FC70
7870
1030
1030
1020
1B60
1B60
1BC0
1CC0
0CC0
0400
ENDCHAR
STARTCHAR 247
ENCODING 247
SWIDTH 864 0
DWIDTH 12 0
BBX 11 22 1 -3
BITMAP
8020
C040
C040
C000
C020
C020
C020
C040
C000
C020
C040
C060
E060
6660
6620
6F20
7BE0
79E0
79E0
60E0
4060
4060
ENDCHAR
STARTCHAR 248
ENCODING 248
SWIDTH 864 0
DWIDTH 12 0
BBX 11 22 1 -3
BITMAP
0300
0320
9820
9820
C320
C360
C060
C060
C060
C060
C060
C060
C460
4660
4660
4F60
7BE0
79E0
39C0
20C0
0040
0040
ENDCHAR
STARTCHAR 249
ENCODING 249
SWIDTH 864 0
DWIDTH 12 0
BBX 11 24 1 -4
BITMAP
8020
8020
8020
8020
C020
C020
C060
C060
C460
C460
C460
C660
CE60
CE60
CE60
CE60
CE60
CF60
F9E0
F9E0
F0E0
E0E0
C060
C060
ENDCHAR
STARTCHAR 250
ENCODING 250
SWIDTH 864 0
DWIDTH 12 0
BBX 11 12 1 0
BITMAP
3FE0
3FE0
7FC0
C180
C300
8700
8600
0C00
1800
3820
3FE0
7FC0
ENDCHAR
STARTCHAR 251
ENCODING 251
SWIDTH 864 0
DWIDTH 12 0
BBX 8 17 3 -1
BITMAP
FF
FF
C3
C3
C3
06
06
1C
18
38
70
F3
E3
E3
FF
FF
FF
ENDCHAR
STARTCHAR 252
ENCODING 252
SWIDTH 864 0
DWIDTH 12 0
BBX 11 20 0 -2
BITMAP
3FE0
3FE0
3060
F860
70E0
20C0
0180
0300
0700
0600
0C00
1800
3800
3800
3FE0
3FE0
3FE0
0040
00E0
0040
ENDCHAR
STARTCHAR 253
ENCODING 253
SWIDTH 864 0
DWIDTH 12 0
BBX 9 20 2 -3
BITMAP
FF80
D580
AB80
FF80
0280
0780
0580
0F00
1A00
1400
2C00
F800
D000
A000
E000
FF00
D500
8500
DB00
FF00
ENDCHAR
STARTCHAR 254
ENCODING 254
SWIDTH 864 0
DWIDTH 12 0
BBX 12 20 0 -2
BITMAP
FFF0
7FF0
3FF0
1FF0
00F0
00F0
01F0
03E0
03C0
0780
0F80
1F00
1E00
3C00
7C00
FFC0
FFE0
FFF0
FFF0
FFF0
ENDCHAR
STARTCHAR 255
ENCODING 255
SWIDTH 864 0
DWIDTH 12 0
BBX 11 20 1 -2
BITMAP
0080
71C0
FBE0
DF60
CC60
00C0
00C0
0180
0300
0700
0600
0C00
1800
3800
3000
6700
E700
FFE0
78C0
3000
ENDCHAR
ENDFONT
